<?xml version="1.0" encoding="UTF-8"?><svg id="Layer_1" xmlns="http://www.w3.org/2000/svg" width="584" height="307" viewBox="0 0 584 307"><defs><style>.cls-1{fill:#073f9c;stroke-width:0px;}</style></defs><path class="cls-1" d="M546.23,59.84c-29.34,23.02-58.8,45.9-89.21,67.49s-60.78,41.24-93.08,58.68c-31.36,16.93-64.07,31.46-98.07,42.2-34.25,10.81-70.6,18.8-106.66,18.72-33.12-.07-67.77-8.92-91.81-32.94-2.74-2.74-5.29-5.65-7.67-8.7s-6.59,1.23-4.24,4.24c20.58,26.38,53.47,39.42,86.01,42.55,19.25,1.86,38.64.45,57.74-2.31,17.9-2.58,35.62-6.41,53.05-11.27,34.82-9.71,68.43-23.52,100.61-39.92,33.18-16.92,64.85-36.67,95.45-57.87,31.21-21.61,61.34-44.72,91.24-68.1,3.64-2.84,7.27-5.69,10.9-8.54,3.04-2.38-1.24-6.6-4.24-4.24h0Z"/><path class="cls-1" d="M98.9,166.8c-12.61-.7-25.35-1.32-37.99-.87-6.23.22-12.61.78-18.65,2.44-5.45,1.49-9.96,4.39-13.34,8.92-6.73,9.03-6.31,21.15-2.94,31.38,3.66,11.13,9.79,21.54,16.36,31.16,7.45,10.92,15.93,21.09,24.43,31.2,1.04,1.24,3.17,1.08,4.24,0,1.23-1.23,1.05-3,0-4.24-14.12-16.79-28.58-34.08-37.27-54.45-3.88-9.11-6.3-19.91-1.58-28.92,2.05-3.91,5.09-6.97,9.31-8.51,5.32-1.94,11.18-2.54,16.8-2.85,6.67-.37,13.36-.22,20.04-.06,6.86.16,13.73.44,20.58.82,1.62.09,3-1.44,3-3,0-1.7-1.38-2.91-3-3h0Z"/></svg>