<?xml version="1.0" encoding="UTF-8"?><svg id="Layer_1" xmlns="http://www.w3.org/2000/svg" width="254" height="151" viewBox="0 0 254 151"><defs><style>.cls-1{fill:#073f9c;stroke-width:0px;}</style></defs><path class="cls-1" d="M208.86,94.11c7.62-10.92,13.71-22.85,18.12-35.41.1-.28-.2-.53-.46-.46-16.55,4.12-31.52,13.96-42.02,27.38-2.94,3.75-5.51,7.77-7.69,12.01l.65.38c7.02-14.57,13-29.62,17.9-45.04.09-.27-.19-.54-.46-.46-5.93,1.78-10.99,5.4-15.84,9.15s-9.96,8.05-14.71,12.35c-9.64,8.72-18.67,18.07-27.46,27.63-4.99,5.43-9.91,10.93-14.83,16.43l.63.36c2.01-7.61,6.25-14.31,11.07-20.45,5.09-6.49,10.66-12.64,16.15-18.79,11.48-12.88,23.29-25.46,35.22-37.93,6.78-7.08,13.59-14.13,20.41-21.18l-.53-.53c-14.8,16.48-33.96,27.98-51.13,41.7-17.55,14.02-33.73,29.96-53.1,41.55-9.3,5.56-19.9,10.04-26.37,19.16l.7.19c-.8-6.9,5.38-12.49,9.41-17.31,4.42-5.28,8.78-10.62,13.14-15.95,8.81-10.75,17.69-21.48,27.3-31.54,5.36-5.61,10.95-11,16.83-16.06.33-.29-.09-.78-.45-.59-13.43,7.09-26.89,14.11-40.28,21.28-6.24,3.34-11.87,7.28-17.22,11.91-5.53,4.78-10.96,9.67-16.44,14.52-6.42,5.68-12.84,11.36-19.26,17.03l.53.53c5.17-5.18,10.06-10.62,14.64-16.32,2.13-2.66,4.38-5.34,6.22-8.21,1.42-2.21,2.65-5.13.99-7.54-.1-.14-.25-.22-.42-.17-9.1,2.4-18.09,5.2-26.94,8.4l.36.63c8.46-9.09,20.59-12.97,31.23-18.78,6.07-3.31,11.62-7.47,17.54-11.04s12.57-6.45,19.26-8.72c7.3-2.47,14.78-4.36,22.26-6.23.47-.12.27-.84-.2-.72-15.6,3.82-30.91,8.76-45.8,14.79-.44.18-.25.9.2.72,14.89-6.03,30.2-10.97,45.8-14.79l-.2-.72c-13.44,3.37-27.11,6.81-39.29,13.63-6.24,3.49-11.95,7.85-18.14,11.42-5.37,3.1-11.07,5.55-16.6,8.34-6.05,3.05-11.93,6.57-16.58,11.57-.24.26,0,.76.36.63,8.85-3.2,17.84-6,26.94-8.4l-.42-.17c1.95,2.82-.52,6.22-2.22,8.52-2.04,2.76-4.15,5.47-6.33,8.12-4.16,5.05-8.56,9.9-13.18,14.53-.34.34.17.85.53.53,11.2-9.91,22.39-19.84,33.61-29.72,5.35-4.72,10.85-9.04,17.1-12.5,6.57-3.64,13.28-7.05,19.92-10.56,7.47-3.95,14.94-7.89,22.41-11.84l-.45-.59c-21.61,18.57-38.8,41.45-56.99,63.2-4.22,5.05-10.75,10.94-9.92,18.18.04.37.47.51.7.19,5.91-8.34,15.46-12.74,24.06-17.7,9.53-5.49,18.35-12.11,26.86-19.07s16.9-14.4,25.5-21.42,17.61-13.41,26.5-20.02c9.8-7.29,19.39-14.94,27.57-24.05.32-.36-.19-.88-.53-.53-12.22,12.64-24.44,25.28-36.44,38.12-5.97,6.39-11.89,12.83-17.72,19.35s-11.36,12.63-16.67,19.24-10.03,13.73-12.2,21.96c-.09.35.37.65.63.36,17.04-19.06,34.2-38.24,54.23-54.24,5.56-4.44,11.35-9.05,18.27-11.12l-.46-.46c-4.87,15.35-10.83,30.35-17.82,44.86-.21.43.43.81.65.38,7.71-15.01,20.53-27.19,35.82-34.3,4.32-2.01,8.82-3.59,13.44-4.74l-.46-.46c-4.38,12.51-10.46,24.36-18.04,35.23-.28.4.37.77.65.38h0Z"/><path class="cls-1" d="M88.62,52.39c-9.86,2.37-19.5,5.65-29.18,8.65s-19.73,6.1-29.59,9.15c-2.58.8-5.24,1.46-7.76,2.44-1.61.63-3.08,1.53-3.66,3.24-.09.28.2.53.46.46,22.39-5.81,45.03-10.59,67.66-15.35,5.59-1.18,11.2-2.32,16.91-2.71,5.76-.39,11.53-.14,17.29.09,5.68.23,11.37.44,17.04,0,5.66-.44,11.24-1.59,16.88-2.2,6.36-.69,12.71-.31,19.08.03,6.56.35,13.12.7,19.68,1.05l-.19-.7c-17.75,8.65-37.17,12.98-56.54,16.24-5.22.88-10.46,1.75-15.73,2.31s-10.51.68-15.79.59c-10.57-.19-21.14-.69-31.71-1.05-5.95-.21-11.9-.41-17.86-.62-2.54-.09-5.12-.07-7.65-.35-2.4-.27-4.8-.94-6.37-2.89l-.27.64c17.23.37,34.48-.4,51.61-2.33s33.17-5.25,49.95-5.83c9.43-.33,18.89.31,28.05,2.66.47.12.67-.6.2-.72-16.2-4.15-33.05-2.91-49.45-.75-8.36,1.1-16.69,2.44-25.06,3.46s-17.22,1.81-25.87,2.28c-9.8.53-19.61.69-29.42.48-.35,0-.46.4-.27.64,2.42,2.99,6.55,3.17,10.09,3.3,5.46.19,10.91.38,16.37.57,10.91.38,21.81.78,32.72,1.13,5.43.17,10.87.28,16.29-.07s10.56-1.13,15.8-1.97c9.99-1.61,19.95-3.42,29.77-5.88,10.83-2.72,21.46-6.28,31.51-11.18.36-.17.15-.68-.19-.7-5.82-.31-11.64-.62-17.46-.94s-11.62-.79-17.42-.47-11.25,1.43-16.88,2.13-11.33.74-17.01.55-11.53-.55-17.3-.41-11.08.91-16.55,1.99c-11.33,2.24-22.62,4.73-33.9,7.21-12.79,2.81-25.54,5.77-38.21,9.06l.46.46c.7-2.07,3.05-2.73,4.93-3.32,2.31-.72,4.61-1.43,6.92-2.14,4.69-1.45,9.39-2.9,14.08-4.35,9.33-2.88,18.66-5.77,27.98-8.65,5.22-1.61,10.44-3.21,15.76-4.49.47-.11.27-.84-.2-.72h0Z"/></svg>