<?xml version="1.0" encoding="UTF-8"?><svg id="Layer_1" xmlns="http://www.w3.org/2000/svg" width="359" height="309" viewBox="0 0 359 309"><defs><style>.cls-1{fill:#073f9c;stroke-width:0px;}</style></defs><path class="cls-1" d="M217.72,80.1c-25.16,15.83-50.32,31.66-75.48,47.5-22.33,14.06-44.97,27.8-66.02,43.75-10.03,7.6-19.7,15.7-28.65,24.56-4.61,4.57-9.02,9.33-13.19,14.3-3.86,4.61-8.22,9.47-7.15,15.93.94,5.74,5.2,10.84,9.14,14.9s8.4,7.4,13.25,10.14c9.81,5.55,20.98,8.52,32.2,9.23,26.86,1.69,53.02-9.31,76.61-20.96,23.72-11.72,46.12-26.04,66.76-42.59,21.46-17.2,40.04-37.68,61.82-54.49,19.64-15.16,42.64-29.83,49.8-55.17,1.64-5.79,2.26-11.88,1.49-17.86s-2.76-12.07-7.49-16.01c-4.86-4.05-11.37-6.32-17.19-8.59-6.44-2.52-13.03-4.64-19.73-6.36-6.65-1.71-13.39-3-20.19-3.91-6.38-.85-13.03-1.75-18.85,1.66-5.01,2.94-8.5,7.81-11.97,12.34-4.6,6.01-9.2,12.01-13.81,18.02-4.35,5.68-8.71,11.36-13.06,17.04-1.17,1.53,1.43,3.03,2.59,1.51,8.71-11.36,17.41-22.72,26.12-34.08,3.47-4.52,6.94-9.65,12.04-12.47,5.87-3.24,13.34-1.6,19.63-.64,13.11,2,25.98,5.54,38.28,10.51,3.05,1.23,6.1,2.53,9.05,4.01,2.75,1.38,5.42,3.03,7.33,5.5,3.6,4.66,4.63,11.18,4.59,16.92-.08,11.93-5.48,23.41-12.75,32.66-7.79,9.9-17.93,17.68-27.94,25.19s-20.51,15.86-30.13,24.64c-9.91,9.04-19.51,18.44-29.6,27.28-19.22,16.84-40.25,31.61-62.58,44.04-11.25,6.26-22.84,12-34.73,16.96-12.13,5.06-24.76,9.26-37.82,11.08-22.19,3.09-47.05-1.74-62.69-18.89-3.72-4.07-8.62-10.03-7.08-15.96.78-3,2.93-5.48,4.85-7.82s3.95-4.71,6.01-6.99c8.21-9.12,17.23-17.49,26.72-25.26,19.23-15.77,40.29-29.12,61.31-42.35,24.13-15.19,48.27-30.38,72.41-45.57,5.88-3.7,11.76-7.4,17.64-11.1,1.63-1.03.13-3.62-1.51-2.59h0Z"/><path class="cls-1" d="M313.4,125.22c.26,8.49-.76,17.97-7.66,23.82-2.8,2.37-6.72,4.03-10.44,3.39-2.18-.38-3.13-1.6-3.84-3.62-.85-2.41-1.68-4.84-2.52-7.26-.63-1.81-3.53-1.03-2.89.8.73,2.12,1.47,4.23,2.2,6.35.63,1.81,1.19,3.73,2.72,5,2.73,2.29,6.92,2.17,10.16,1.2,7.17-2.14,12-8.6,13.94-15.58,1.27-4.58,1.48-9.39,1.34-14.11-.06-1.93-3.06-1.93-3,0h0Z"/><path class="cls-1" d="M315.66,125.22v-2.78c0-.38-.17-.79-.44-1.06s-.69-.46-1.06-.44-.79.14-1.06.44-.44.65-.44,1.06v2.78c0,.38.17.79.44,1.06s.69.46,1.06.44.79-.14,1.06-.44.44-.65.44-1.06h0Z"/><path class="cls-1" d="M160.83,237.98c-1.13,4.03.45,8.37,3.49,11.16,3.46,3.17,8.37,4.02,12.9,3.43,5.04-.65,9.61-3.03,14.03-5.42,1.93-1.04,3.91-2.13,5.18-3.98,1.38-2,1.68-4.55,2-6.89.86-6.24.95-12.53.24-18.79-.22-1.9-3.22-1.92-3,0,.53,4.66.64,9.37.28,14.05-.18,2.36-.43,4.76-.93,7.08-.43,2.04-1.28,3.53-3.05,4.66-3.53,2.27-7.58,4.32-11.59,5.54s-8.31,1.49-11.98-.46c-3.39-1.8-5.76-5.73-4.68-9.59.52-1.86-2.37-2.66-2.89-.8h0Z"/><path class="cls-1" d="M75.15,261.85c3.08,6.28,10.11,9.14,16.76,9.42,4.02.17,8.07-.46,12-1.23,3.45-.67,6.68-1.87,8.9-4.73s2.99-6.39,2.25-9.85c-.4-1.89-3.3-1.09-2.89.8.67,3.13-.56,6.55-3.04,8.58-1.52,1.25-3.47,1.78-5.36,2.18-2.1.44-4.24.8-6.37,1.03-7.26.78-16.08-.42-19.66-7.72-.85-1.73-3.44-.21-2.59,1.51h0Z"/></svg>