<?xml version="1.0" encoding="UTF-8"?><svg id="Layer_1" xmlns="http://www.w3.org/2000/svg" width="260" height="166" viewBox="0 0 260 166"><defs><style>.cls-1{fill:#073f9c;stroke-width:0px;}</style></defs><path class="cls-1" d="M148.31,44.59c-.59.77.44-.47.56-.59.36-.38.73-.74,1.11-1.09.29-.26.59-.51.89-.76.4-.32.41-.33.02-.01.21-.15.42-.31.64-.45,1.53-1.05,3.16-1.94,4.82-2.74.48-.23.97-.46,1.46-.67.15-.07,1.68-.73.77-.34.86-.36,1.72-.71,2.58-1.05,2.12-.85,4.24-1.69,6.37-2.5,4.26-1.6,8.6-3.05,13.07-3.99,1.14-.24,2.28-.45,3.44-.62-.8.11.49-.05.64-.07.61-.06,1.23-.12,1.85-.16,2.32-.15,4.64-.09,6.96.17-.76-2.8-1.51-5.59-2.27-8.39-14.8,6.37-28.77,14.56-41.56,24.35-1.31,1-2.23,2.15-2.23,3.89s.91,2.92,2.23,3.89c12.65,9.25,27.78,14.13,40.99,22.45,1.79,1.12,3.52,2.32,5.22,3.57.69.51.17.12.03.02.21.16.42.33.62.49.46.37.92.75,1.38,1.13.86.73,1.7,1.48,2.52,2.25l.91-7.07c-8.29,5.16-16.86,9.84-25.67,14.04-3.08,1.46-2.79,6.22,0,7.77,8.87,4.92,17.74,9.85,26.62,14.77,3.77,2.09,7.54,4.17,11.24,6.38,1.86,1.12,3.71,2.26,5.51,3.47.81.54,1.62,1.09,2.42,1.66.4.28.79.57,1.19.85.22.16.45.33.67.5.08.06.95.72.54.41s.28.22.37.29c.27.22.54.43.81.65.43.35.85.71,1.28,1.07.89.77,1.77,1.55,2.62,2.37,1.75,1.68,3.39,3.47,4.91,5.36l5.45-7.07c-17-9.45-35.04-17.09-53.66-22.69-5.26-1.58-10.57-3-15.92-4.25-1.88-.44-4.13.27-5.08,2.07-1.02,1.92-.59,3.81.7,5.45.54.69,1.08,1.38,1.62,2.07.15.19.29.38.44.57-.17-.22-.16-.21.03.03.24.32.49.63.73.95,1.07,1.39,2.13,2.78,3.18,4.18,2.1,2.8,4.18,5.62,6.23,8.46,4.09,5.68,8.07,11.45,11.93,17.3l6.16-6.16c-10.62-4.65-21.75-7.74-32.9-10.82-5.46-1.51-10.92-3.05-16.29-4.84-2.61-.87-5.2-1.8-7.76-2.81s-4.62-1.94-7.38-3.24c-5.31-2.49-10.51-5.2-15.79-7.73-5.27-2.53-10.62-4.89-16.02-7.13-10.51-4.36-21.25-8.15-32.18-11.33-12.25-3.57-24.72-6.37-37.32-8.41l-1.2,8.84c-.82-.11.45.09.61.12.45.08.9.17,1.34.27.89.19,1.77.42,2.65.68,1.76.51,3.47,1.15,5.18,1.81.92.36-.21-.1.62.26.42.18.84.37,1.26.56.84.38,1.67.77,2.51,1.17,1.76.84,3.5,1.71,5.24,2.58,7.2,3.58,14.39,7.16,21.59,10.74l2.27-8.39c-3.78-.37-7.57-.74-11.35-1.16-1.81-.2-3.62-.42-5.43-.65-.47-.06-.94-.12-1.41-.18-.32-.04-.31-.04.02,0-.24-.03-.47-.06-.71-.1-.94-.13-1.88-.27-2.82-.41-7.42-1.13-14.78-2.67-21.94-4.94l1.07,8.22c16.69-7.18,33.38-14.36,50.08-21.53,16.66-7.16,33.31-14.33,49.97-21.49,9.41-4.05,18.82-8.09,28.24-12.14,2.17-.93,2.82-4.29,1.61-6.16-1.45-2.25-3.83-2.61-6.16-1.61-16.62,7.15-33.24,14.3-49.87,21.44-16.69,7.18-33.37,14.35-50.06,21.53-9.45,4.06-18.9,8.13-28.35,12.19-1.62.69-2.36,2.91-2.15,4.48.24,1.8,1.49,3.19,3.22,3.74,14.9,4.71,30.55,6.24,46.03,7.76,4.43.43,6.15-6.46,2.27-8.39-7.49-3.73-14.99-7.46-22.48-11.18-7.41-3.69-14.79-7.13-23.07-8.22-2.21-.29-4.16,1.94-4.42,3.9s1.01,4.58,3.22,4.94c22.32,3.61,44.22,9.65,65.23,18.01,2.65,1.05,4.92,1.99,7.02,2.9,2.61,1.13,5.21,2.29,7.79,3.49,5.21,2.42,10.32,5.04,15.48,7.55,5.43,2.65,10.94,5.13,16.61,7.2,5.25,1.92,10.6,3.53,15.97,5.05,6.04,1.71,12.12,3.31,18.14,5.11,3,.9,5.99,1.84,8.95,2.88,1.44.5,2.88,1.03,4.3,1.58.78.3,1.56.61,2.34.93.08.03.95.4.52.21-.26-.11-.15-.06.31.13.28.12.56.24.84.37,1.79.78,4,.88,5.45-.7,1.3-1.42,1.83-3.75.7-5.45-8.03-12.14-16.57-23.93-25.55-35.39l-4.38,7.52c9.28,2.18,18.45,4.85,27.45,8.01,4.46,1.57,8.88,3.25,13.25,5.06.49.2.99.41,1.48.62-.6-.25.11.05.19.08.28.12.56.24.84.36,1.12.48,2.24.97,3.35,1.47,2.16.96,4.31,1.96,6.44,2.98,4.89,2.34,9.69,4.83,14.43,7.46,1.97,1.1,4.43.62,5.81-1.16,1.46-1.9,1.07-4.13-.35-5.91-5.51-6.87-12.7-12.22-20.15-16.82-7.99-4.94-16.35-9.32-24.56-13.88-5.09-2.83-10.18-5.65-15.27-8.48v7.77c8.81-4.2,17.38-8.88,25.67-14.04,2.39-1.49,3.07-5.02.91-7.07-11.81-11.16-27.16-16.68-41.22-24.26-3.92-2.12-7.75-4.42-11.35-7.06v7.77c12.79-9.79,26.76-17.98,41.56-24.35,1.73-.75,2.62-3.37,2.07-5.08-.66-2.04-2.27-3.07-4.34-3.3-10.02-1.12-19.96,1.79-29.23,5.33-4.36,1.66-8.79,3.32-12.98,5.4-4.23,2.1-7.85,4.88-10.73,8.63-1.44,1.87-.35,5.12,1.61,6.16,2.38,1.26,4.62.39,6.16-1.61h0Z"/><path class="cls-1" d="M117.92,59.03c-17.31-8.36-34.58-16.82-51.78-25.4-1.65-.82-3.49-.81-5,.35-1.33,1.03-2.22,3.04-1.61,4.73.76,2.12,1.27,4.3,1.59,6.53-.11-.74.06.61.08.81.05.52.1,1.05.14,1.57.08,1.13.14,2.26.18,3.4.17,4.44.23,8.87.72,13.29.99,8.95,3.02,17.73,6.3,26.12,1.91,4.88,4.13,9.63,6.74,14.18l1.61-6.16c-16.97,9.84-34.28,19.08-51.91,27.69-1.71.83-2.64,3.3-2.07,5.08.63,1.95,2.28,3.21,4.34,3.3,6.02.27,12.06-.19,17.98-1.33,5.58-1.07,10.85-2.99,16.07-5.18s10.78-4.27,16.39-5.87c5.76-1.64,11.55-3.21,17.32-4.81,5.64-1.56,11.27-3.34,17.01-4.49,2.88-.57,5.8-.97,8.68-1.56s5.68-1.3,8.49-2.08c11.52-3.17,22.94-6.74,34.35-10.25,12.86-3.96,25.69-8.04,38.47-12.22,2.23-.73,3.92-3.15,3.14-5.54-.72-2.23-3.14-3.93-5.54-3.14-22.6,7.4-45.32,14.48-68.15,21.14-5.66,1.65-11.35,3.17-17.17,4.15s-11.3,2.44-16.91,3.99c-5.73,1.59-11.47,3.18-17.2,4.76s-11.13,3.09-16.49,5.25c-5.99,2.4-11.82,5.09-18.12,6.58-1.52.36-3.05.66-4.59.92-.31.05-.62.1-.93.15-1.02.16.28-.02-.66.09-.78.09-1.55.18-2.33.25-3.27.29-6.55.34-9.83.2l2.27,8.39c17.62-8.61,34.94-17.85,51.91-27.69,2.11-1.23,2.82-4.05,1.61-6.16-1.08-1.88-2.1-3.79-3.05-5.73-.46-.94-.9-1.88-1.33-2.84-.21-.48-.42-.95-.63-1.43-.04-.1-.33-.79-.07-.16-.11-.28-.23-.55-.34-.83-1.62-4.01-2.98-8.13-4.06-12.32-.54-2.1-1.01-4.21-1.41-6.34-.19-1.03-.37-2.06-.53-3.09-.08-.52-.16-1.03-.23-1.55.11.78-.09-.79-.12-1.02-.5-4.34-.59-8.69-.74-13.05-.18-5.18-.58-10.47-2.35-15.38l-6.61,5.08c17.21,8.58,34.47,17.04,51.78,25.4,2.12,1.02,4.96.65,6.16-1.61,1.06-2.01.65-5.06-1.61-6.16h0Z"/><path class="cls-1" d="M180.72,89.38c-1.13-.44-2.27-.9-3.39-1.36-.28-.12-.56-.23-.84-.35.6.25-.1-.04-.19-.08-.63-.27-1.26-.54-1.89-.82-2.3-1.01-4.58-2.06-6.85-3.13-4.54-2.16-9.03-4.43-13.5-6.74-8.94-4.62-17.79-9.4-26.88-13.71-5.3-2.52-10.68-4.87-16.16-6.98-2.2-.85-5.03.94-5.54,3.14-.59,2.58.79,4.63,3.14,5.54,1.14.44,2.27.89,3.4,1.35.56.23,1.13.46,1.69.7-.18-.08-.65-.28.19.08.35.15.7.3,1.05.45,2.3,1,4.59,2.04,6.86,3.11,4.55,2.14,9.04,4.4,13.51,6.71,8.94,4.61,17.8,9.4,26.87,13.74,5.29,2.53,10.67,4.9,16.13,7.04,2.2.86,5.03-.94,5.54-3.14.59-2.59-.79-4.61-3.14-5.54h0Z"/><path class="cls-1" d="M162.12,41.55c2.35,0,4.61-2.07,4.5-4.5s-1.98-4.5-4.5-4.5c-2.35,0-4.61,2.07-4.5,4.5s1.98,4.5,4.5,4.5h0Z"/><path class="cls-1" d="M82.81,94.45c.33-1.5.69-2.99,1.17-4.45.13-.39.29-.78.42-1.17.16-.48-.1.22-.12.26.07-.16.14-.32.22-.48.34-.72.73-1.43,1.18-2.09.1-.14.19-.27.29-.41-.07.09-.53.5-.18.26.29-.2.56-.58.81-.83.57-.58-.56.31.14-.11.34-.21.67-.41,1.03-.58.51-.24-.58.09.07,0,.2-.03.42-.13.61-.18.41-.11.83-.18,1.25-.26.86-.16-.37.03.5-.07.63-.07,1.27-.14,1.9-.21,8.7-.96,17.39-1.91,26.09-2.87,4.92-.54,9.84-1.08,14.77-1.62,2.33-.26,4.62-1.89,4.5-4.5-.1-2.22-1.99-4.78-4.5-4.5-9.35,1.03-18.7,2.06-28.05,3.08-4.59.5-9.19,1.01-13.78,1.51-2.64.29-5.1.59-7.54,1.67-1.67.74-3.19,1.94-4.36,3.34-2.83,3.36-4.16,7.57-5.08,11.79-.5,2.29.69,4.98,3.14,5.54,2.27.52,5-.68,5.54-3.14h0Z"/><path class="cls-1" d="M106.1,80c1.9,4.73,4.73,8.7,7.93,12.65s6.5,7.91,9.76,11.87c6.58,8,13.16,16,19.73,23.99,1.25,1.52,3.85,1.63,5.45.7,8.76-5.08,17.52-10.17,26.28-15.25,2.04-1.18,2.93-4.12,1.61-6.16s-3.98-2.88-6.16-1.61c-8.76,5.08-17.52,10.17-26.28,15.25l5.45.7c-6.37-7.74-12.73-15.48-19.1-23.22-3.14-3.82-6.28-7.63-9.42-11.45-.7-.85-1.39-1.7-2.07-2.56.47.6-.54-.71-.63-.84-.3-.41-.6-.83-.89-1.25-.62-.9-1.21-1.82-1.75-2.77-.29-.5-.56-1.02-.82-1.54-.07-.14-.73-1.67-.43-.92-.88-2.18-3.04-3.95-5.54-3.14-2.1.68-4.08,3.2-3.14,5.54h0Z"/><path class="cls-1" d="M79.27,98.52c-.93-2.52-2.19-4.69-3.93-6.74-1.46-1.72-3.31-3.19-5.28-4.28l-2.27,8.39c3.59-.06,7.19-.48,10.71-1.18,1.06-.21,2.16-1.16,2.69-2.07.56-.96.8-2.39.45-3.47s-1.03-2.14-2.07-2.69c-1.11-.59-2.23-.7-3.47-.45-1.08.22-2.17.4-3.27.55l1.2-.16c-2.07.28-4.15.44-6.24.47-1.01.02-1.93.35-2.73.97-.74.57-1.4,1.4-1.61,2.34-.44,1.92.28,4.09,2.07,5.08.69.38,1.34.81,1.97,1.29l-.91-.7c1.05.82,1.99,1.76,2.81,2.8l-.7-.91c.84,1.09,1.54,2.28,2.08,3.55l-.45-1.07c.09.23.18.46.27.69.41,1.12,1.01,2.07,2.07,2.69.96.56,2.39.8,3.47.45s2.14-1.03,2.69-2.07.87-2.34.45-3.47h0Z"/><path class="cls-1" d="M81.38,97.23c.36-.68.75-1.34,1.17-1.98.18-.27.37-.52.55-.78.19-.26.15-.21-.12.15.12-.15.24-.3.37-.44.91-1.08,1.92-2.07,2.99-2.97.28-.24.65-.53.14-.14.31-.24.62-.46.94-.68.64-.44,1.29-.86,1.96-1.25.56-.33,1.13-.64,1.7-.93.35-.18.7-.35,1.05-.51.1-.05,1.28-.55.35-.17,3.04-1.24,6.23-2.07,9.46-2.64.45-.08.9-.15,1.35-.22.02,0,1.45-.21.62-.1.76-.1,1.52-.19,2.28-.27,1.82-.19,3.65-.33,5.48-.46,2.34-.16,4.61-1.95,4.5-4.5-.1-2.3-1.99-4.67-4.5-4.5-7.87.55-15.72,1.47-23.02,4.62-6.21,2.68-11.84,7.21-15.05,13.25-1.1,2.08-.59,4.99,1.61,6.16,2.08,1.1,4.98.61,6.16-1.61h0Z"/><path class="cls-1" d="M143.9,39.51c-1.78,1.73-3.65,3.32-5.56,4.9-.37.3.37-.27-.26.2-.23.17-.45.34-.68.51-.51.38-1.03.75-1.55,1.11-1.04.73-2.11,1.42-3.19,2.09-2.1,1.3-4.27,2.49-6.5,3.56-.57.28-1.15.54-1.73.8-.26.12-.52.23-.78.34-.66.3.58-.23-.1.04-1.25.49-2.5.98-3.77,1.42-2.22.77-3.93,3.12-3.14,5.54.71,2.19,3.16,3.97,5.54,3.14,10.51-3.66,20.1-9.52,28.08-17.29,1.69-1.65,1.77-4.73,0-6.36s-4.56-1.76-6.36,0h0Z"/><path class="cls-1" d="M151.6,107.28c2.88,1.75,5.76,3.52,8.57,5.39,1.41.94,2.8,1.9,4.17,2.91.31.23.63.46.94.7.21.16.41.31.62.47-.35-.27-.4-.3-.14-.11.65.53,1.31,1.05,1.95,1.59,2.52,2.13,4.9,4.46,6.98,7.03.14.17.81,1.07.23.28.22.3.45.61.67.91.51.72,1,1.45,1.45,2.21.86,1.41,1.61,2.88,2.27,4.39.94,2.17,4.28,2.82,6.16,1.61,2.25-1.45,2.62-3.84,1.61-6.16-5.85-13.41-18.9-21.7-30.93-28.99-2.01-1.22-5.03-.51-6.16,1.61s-.54,4.85,1.61,6.16h0Z"/><path class="cls-1" d="M171.89,103.76c-5.36-2.45-10.72-4.9-16.08-7.35-1.13-.52-2.23-.8-3.47-.45-1.04.29-2.18,1.09-2.69,2.07-1.04,1.98-.67,5.11,1.61,6.16,5.36,2.45,10.72,4.9,16.08,7.35,1.13.52,2.23.8,3.47.45,1.04-.29,2.18-1.09,2.69-2.07,1.04-1.98.67-5.11-1.61-6.16h0Z"/><path class="cls-1" d="M211.15,113.44c-4.39-1.15-8.7-2.62-13.03-3.99s-9.03-2.86-13.54-4.29c-8.95-2.84-17.89-5.68-26.84-8.51-2.24-.71-5.01.84-5.54,3.14-.56,2.45.74,4.77,3.14,5.54,8.95,2.84,17.89,5.68,26.84,8.51,4.43,1.41,8.87,2.81,13.3,4.22,4.4,1.4,8.79,2.9,13.27,4.07,2.27.59,4.99-.75,5.54-3.14s-.71-4.9-3.14-5.54h0Z"/><path class="cls-1" d="M156.83,99.75c-3.57-1.19-7.14-2.38-10.71-3.58-1.07-.36-2.51-.11-3.47.45s-1.82,1.62-2.07,2.69c-.57,2.49.75,4.74,3.14,5.54,3.57,1.19,7.14,2.38,10.71,3.58,1.07.36,2.51.11,3.47-.45s1.82-1.62,2.07-2.69c.57-2.49-.75-4.74-3.14-5.54h0Z"/><path class="cls-1" d="M124.9,95.98c-1.81.66-3.68,1.15-5.6,1.42.88-.12-.53.04-.57.05-.44.04-.89.07-1.33.09-.97.05-1.94.06-2.91.03s-1.95-.08-2.92-.17c-.45-.04-.9-.09-1.35-.14-1.06-.11.36.07-.6-.07-1.94-.29-3.86-.65-5.77-1.08-8.13-1.8-16.13-4.29-24.52-4.55-2.36-.07-4.61,2.12-4.5,4.5.11,2.5,1.98,4.42,4.5,4.5,4.17.13,7.15.69,11.46,1.68,4,.91,7.96,2,11.98,2.84,8.04,1.66,16.65,2.45,24.52-.41,2.21-.8,3.93-3.09,3.14-5.54-.7-2.17-3.17-4.01-5.54-3.14h0Z"/></svg>