<?xml version="1.0" encoding="UTF-8"?><svg id="Layer_1" xmlns="http://www.w3.org/2000/svg" width="431" height="145" viewBox="0 0 431 145"><defs><style>.cls-1{fill:#073f9c;stroke-width:0px;}</style></defs><path class="cls-1" d="M33.45,42.06c-5.03.16-8.11,5.02-9.33,9.42-1.71,6.21-.23,12.84,1.19,18.95,2.51,10.77,5.44,23.19,16.48,28.21,5.73,2.6,12.19,3.83,18.35,4.92,6.7,1.19,13.47,1.94,20.25,2.51,13.91,1.17,27.86,1.93,41.8,2.65,27.92,1.45,55.88,2.24,83.83,1.96s55.6-1.64,83.26-4.5c27.75-2.87,55.37-7.23,82.57-13.45,6.68-1.53,13.36-3.11,19.97-4.93,4.37-1.21,8.87-2.99,11.91-6.5,7.6-8.79,2.73-21.87-5.64-28.1-4.83-3.59-10.67-5.99-16.22-8.21-6.01-2.4-12.2-4.32-18.48-5.85-12.49-3.02-25.32-4.45-38.14-5.1s-26.26-.53-39.39-.47c-14.49.07-28.98.14-43.48.21-28.85.14-57.71.28-86.56.41-28.99.14-57.98.28-86.98.42-7.07.03-14.13.07-21.2.1-1.93,0-1.93,3.01,0,3,27.76-.13,55.51-.27,83.27-.4,27.7-.13,55.41-.26,83.11-.4,27.61-.13,55.23-.32,82.84-.39,24.78-.06,49.98.45,73.88,7.74,6.12,1.87,12.12,4.17,17.88,6.95,5.15,2.49,10.37,5.41,13.32,10.52,2.72,4.72,3.64,11.06.74,15.91-2.4,4.02-6.92,5.9-11.23,7.13-12.71,3.62-25.74,6.39-38.71,8.96s-26.36,4.79-39.64,6.6c-26.7,3.65-53.6,5.75-80.52,6.73-26.72.97-53.46.83-80.18-.05-13.37-.44-26.72-1.07-40.07-1.83-13.31-.76-26.68-1.41-39.93-2.88-6.75-.75-13.47-1.82-20.08-3.43-5.68-1.39-11.61-2.99-15.62-7.54-3.67-4.15-5.45-9.74-6.87-14.99-1.63-6-3.45-12.36-3.48-18.61-.03-4.21,1.5-12.48,7.07-12.66,1.93-.06,1.93-3.06,0-3h0Z"/></svg>