<?xml version="1.0" encoding="UTF-8"?><svg id="Layer_1" xmlns="http://www.w3.org/2000/svg" width="331" height="411" viewBox="0 0 331 411"><defs><style>.cls-1{fill:#073f9c;stroke-width:0px;}</style></defs><path class="cls-1" d="M52.97,38.99c18.28-4,36.56-7.99,54.85-11.99,17.93-3.92,35.87-7.86,53.98-10.84,5.1-.84,10.2-1.6,15.33-2.25,4.35-.55,9.48-1.67,13.49.68l-.3-2.36c-6.7,6.04-14.49,10.64-22.26,15.15-8.17,4.75-16.2,9.68-24.06,14.93-15.81,10.56-31.15,21.9-46.29,33.39-8.14,6.18-16.09,12.66-22.94,20.28-1.06,1.18,0,2.74,1.46,2.51,6.07-.98,11.74-3.44,17.25-6.08,5.93-2.84,11.84-5.74,17.75-8.61,11.6-5.63,23.11-11.51,34.84-16.84,6.19-2.81,12.69-5.22,19.52-5.79l-1.3-2.26c-11.89,20.5-33.23,32.8-47.6,51.25-3.97,5.1-7.3,10.59-9.7,16.6-.39.97.58,1.84,1.45,1.9,29.74,2.18,58.73-7.31,85.86-18.48,7.57-3.11,15.32-6.89,23.7-6.67l-1.5-1.5c.15,3.65-1.63,6.87-3.81,9.67s-4.69,5.34-7.19,7.84c-5.13,5.11-10.63,9.83-16.32,14.32-11.34,8.95-23.38,16.94-34.94,25.58-6.54,4.89-12.95,9.98-18.97,15.5-1.43,1.31.7,3.43,2.12,2.12,10.91-10.01,23.04-18.52,35.06-27.11,12.01-8.58,24.03-17.32,34.57-27.7,2.9-2.86,5.8-5.81,8.28-9.06s4.37-7,4.2-11.16c-.03-.83-.66-1.48-1.5-1.5-7.41-.19-14.34,2.55-21.06,5.35s-13.6,5.56-20.51,8.06c-13.92,5.02-28.28,9.18-42.99,11.02-8.29,1.04-16.66,1.33-25,.72l1.45,1.9c8.71-21.8,29.88-34.94,45.26-51.58,4.41-4.78,8.47-9.92,11.74-15.55.53-.92-.13-2.35-1.3-2.26-12.4,1.03-23.58,7.36-34.56,12.69-12.04,5.84-24.08,11.69-36.12,17.53-6.25,3.03-12.56,6.08-19.48,7.2l1.46,2.51c6.12-6.81,13.12-12.73,20.36-18.3s15.05-11.27,22.63-16.82c15.4-11.28,31.07-22.17,47.58-31.78,8.69-5.06,17.48-10.09,24.98-16.86.73-.65.49-1.89-.3-2.36-3.56-2.1-7.71-1.96-11.68-1.5-4.56.53-9.11,1.16-13.65,1.85-9.27,1.41-18.49,3.1-27.69,4.93-18.52,3.7-36.94,7.88-55.39,11.91-10.52,2.3-21.03,4.6-31.55,6.89-1.89.41-1.09,3.3.8,2.89h0Z"/><path class="cls-1" d="M137.03,173.65c-16.2,12.09-32.34,24.26-48.43,36.5s-32.06,24.51-48.02,36.87c-8.96,6.95-17.91,13.92-26.84,20.91-1.27,1,.14,2.8,1.46,2.51,7.52-1.65,14.3-5.43,20.71-9.57,6.74-4.35,13.36-8.87,20.13-13.19,13.87-8.85,27.99-17.29,42.31-25.4s28.83-15.89,43.47-23.41,29.58-14.86,44.52-21.99c14.87-7.09,29.83-14,44.83-20.83,1.85-.84,3.69-1.68,5.54-2.52l-2.2-1.69c-1.37,4.37-4.53,7.74-7.93,10.66-3.77,3.23-7.82,6.14-11.67,9.27-8.27,6.72-16.2,13.85-23.76,21.36-4.32,4.29-8.52,8.71-12.59,13.23-1.17,1.3.28,3.09,1.82,2.36,18.63-8.88,36.46-19.39,53.23-31.42,4.71-3.38,9.33-6.88,13.87-10.48,1.51-1.2-.62-3.31-2.12-2.12-16.01,12.69-33.14,23.96-51.13,33.64-5.06,2.72-10.18,5.32-15.37,7.79l1.82,2.36c7.33-8.15,15.07-15.93,23.19-23.29,4-3.63,8.1-7.16,12.28-10.58s8.17-6.29,12.1-9.61,7.57-7.3,9.15-12.37c.43-1.36-1.09-2.2-2.2-1.69-14.93,6.77-29.83,13.61-44.65,20.63-14.89,7.05-29.71,14.26-44.4,21.72s-29.09,15.08-43.4,23.07-28.41,16.28-42.29,24.98c-6.99,4.38-13.92,8.86-20.78,13.45-6.31,4.22-12.7,8.6-19.88,11.2-1.76.64-3.56,1.16-5.39,1.56l1.46,2.51c15.82-12.38,31.69-24.7,47.61-36.94,15.9-12.22,31.85-24.37,47.86-36.44,9.05-6.83,18.12-13.64,27.21-20.42,1.53-1.14.04-3.75-1.51-2.59h0Z"/><path class="cls-1" d="M246.84,167.07c13.87-8.75,27.74-17.5,41.62-26.26l-2.26-1.3c-.52,5.28-3.13,10.01-6.21,14.23-3.41,4.67-7.43,8.91-11.24,13.25-8.34,9.52-16.66,19.06-24.96,28.62-16.7,19.25-33.29,38.58-49.78,58.01-9.26,10.9-18.48,21.83-27.67,32.79-1.23,1.47.88,3.6,2.12,2.12,16.64-19.83,33.39-39.58,50.24-59.24s33.7-39.1,50.71-58.51c4.33-4.94,8.87-9.76,12.8-15.03,3.59-4.82,6.39-10.18,6.98-16.24.11-1.14-1.36-1.86-2.26-1.3-13.87,8.75-27.74,17.5-41.62,26.26-1.63,1.03-.13,3.62,1.51,2.59h0Z"/><path class="cls-1" d="M166.59,286.28c-5.15,7.81-10.76,15.3-16.83,22.41-5.6,6.56-11.96,12.51-17.19,19.38-2.79,3.66-5.1,7.65-6.53,12.04-.44,1.34,1.1,2.23,2.2,1.69,19.81-9.63,39.55-19.4,59.48-28.78,19.98-9.4,40.32-17.95,60.71-26.39,11.54-4.77,23.08-9.55,34.61-14.32,1.76-.73.99-3.63-.8-2.89-20.59,8.52-41.24,16.91-61.74,25.65-20.28,8.64-40.18,18.09-60,27.72-11.26,5.47-22.52,10.95-33.78,16.42l2.2,1.69c2.55-7.81,8.19-13.99,13.69-19.87,6.14-6.55,12.02-13.28,17.46-20.42,3.17-4.17,6.2-8.45,9.08-12.82,1.07-1.62-1.53-3.12-2.59-1.51h0Z"/><path class="cls-1" d="M283.08,272.5c5.17-2.8,10.74-4.66,16.55-5.57l-1.69-2.2c-5.43,7.24-12.34,13.25-19,19.32-6.91,6.31-13.93,12.48-20.99,18.62-3.99,3.47-8,6.92-12,10.37-1.46,1.26.66,3.38,2.12,2.12,14.27-12.3,28.59-24.58,42.23-37.58,3.7-3.53,7.15-7.24,10.23-11.34.88-1.18-.57-2.38-1.69-2.2-6.05.95-11.88,2.95-17.27,5.87-1.7.92-.19,3.51,1.51,2.59h0Z"/><path class="cls-1" d="M245.71,312.61c-4.18,4.09-9.21,7.1-14.12,10.21-5.3,3.36-10.08,7.12-14.68,11.39-9.66,8.96-19.68,17.52-29.86,25.87-5.78,4.74-11.6,9.43-17.43,14.12-1.1.89-.1,2.48,1.06,2.56,7.56.51,15.05-1.54,22.36-3.2s14.99-3.47,22.46-5.29c14.76-3.61,29.43-7.51,44.08-11.52,8.15-2.24,16.41-4.31,24.92-4.34l-1.45-1.9c-.36,2.29-3.25,3.94-4.93,5.28-2.1,1.68-4.25,3.29-6.44,4.83-4.29,3.03-8.76,5.82-13.36,8.35-9.25,5.09-19.13,8.67-28.77,12.89-5.47,2.39-10.83,5.06-15.79,8.41-1.14.77-.84,2.25.36,2.74,4.55,1.86,9.52,1.99,14.35,1.68,5.18-.33,10.35-.89,15.53-1.2,10.8-.66,21.62-.86,32.44-.6,6.11.15,12.21.45,18.31.88,1.93.14,1.92-2.86,0-3-21.3-1.53-42.55-1.07-63.81.73-5.4.46-10.91.7-16.02-1.39l.36,2.74c9.12-6.17,19.51-9.91,29.59-14.15,9.97-4.2,19.49-9.26,28.33-15.5,2.52-1.78,4.99-3.65,7.39-5.58,2.08-1.67,4.91-3.48,5.36-6.33.15-.94-.38-1.9-1.45-1.9-7.47.03-14.82,1.57-22.02,3.46-7.38,1.94-14.72,4.04-22.09,5.99-14.71,3.89-29.49,7.54-44.32,10.95-8.26,1.9-16.84,4.54-25.39,3.96l1.06,2.56c10.33-8.31,20.66-16.63,30.74-25.25,5.01-4.28,9.95-8.64,14.79-13.11,2.39-2.21,4.75-4.46,7.27-6.54,2.31-1.91,4.79-3.59,7.3-5.21,5.53-3.55,11.26-6.86,15.99-11.48,1.38-1.35-.74-3.47-2.12-2.12h0Z"/></svg>