<svg width="51" height="36" viewBox="0 0 51 36" fill="none" xmlns="http://www.w3.org/2000/svg">
<path d="M15.4548 10.5222L15.4871 10.9671L22.9127 10.9741C23.4403 10.975 24.0217 10.9587 24.5354 11.09C27.3637 11.3427 29.832 14.4257 30.0846 17.1466C30.1776 18.1491 30.1679 20.2638 30.0826 21.2608L30.0537 21.6388L29.963 21.6203C29.7601 21.8105 29.8092 22.316 29.809 22.5626L29.8091 23.629C29.8093 24.249 29.8527 24.9078 29.7806 25.5228C29.3552 29.1502 26.6133 31.0157 23.1699 31.0295L15.9954 31.0439C15.463 31.0666 15.0778 31.5926 14.726 31.9451L12.886 33.8214C11.6113 35.1221 10.3113 36.4482 8.32993 35.3924C6.36218 34.3438 7.01709 32.1452 5.81448 31.8169L4.78884 31.5116C4.07132 31.2638 3.39081 30.9019 2.76519 30.4766C0.24939 28.6294 0.0211997 27.0533 0.0239499 24.0765L0.0308486 18.4688C0.0318548 18.0055 0.00432959 17.516 0.0766964 17.0576C0.622169 13.6017 3.01327 11.2982 6.6164 10.9932C7.4408 10.9234 8.31294 10.9762 9.14281 10.9761L14.5845 10.9766C15.3327 10.9762 15.4414 11.1717 15.4548 10.5222Z" fill="white"/>
<path d="M8.6351 19.8278C10.2567 19.7553 10.9339 21.8553 9.18055 22.4465C7.34089 22.8272 6.93265 20.2081 8.6351 19.8278Z" fill="#DDDADA"/>
<path d="M13.4862 19.8377C15.1985 19.6476 15.7811 21.819 14.0135 22.4338C12.3996 22.8634 11.6879 20.4187 13.4862 19.8377Z" fill="#DDDADA"/>
<path d="M18.6799 19.8301C20.5773 19.7148 21.1716 22.0061 19.1069 22.4759C17.024 22.6427 16.566 20.2229 18.6799 19.8301Z" fill="#DDDADA"/>
<path d="M2.55548 30.47L2.3643 30.2169C2.31699 30.1772 2.29559 30.1466 2.23926 30.1137L2.36994 30.1206C2.95236 29.9617 2.71229 29.5541 2.63152 29.1685C2.82596 29.2673 3.23524 29.5335 3.48544 29.6785C4.18289 30.0827 4.92371 30.3256 5.70632 30.512C6.80459 30.7737 6.87668 30.5722 7.13478 31.746C7.41382 33.0146 7.80744 34.1743 9.17856 34.5345L9.26519 34.5585C10.3842 34.8255 11.1177 33.8674 11.7811 33.1502L13.7959 31.0026C14.5424 30.2575 14.7146 29.8763 15.782 29.8499L21.6407 29.837C22.3927 29.8374 23.1881 29.8843 23.9357 29.8064L24.5107 29.7263C26.5205 29.3487 28.2052 27.8437 28.5092 25.819C28.5714 25.4051 28.5382 24.9538 28.5384 24.5357L28.543 18.8664C28.5469 18.0513 28.6206 17.2511 28.4622 16.4449L28.3617 16.0649C27.9217 14.7502 26.8011 13.6708 25.6169 12.9885L25.0536 12.676C24.8716 12.5631 24.6376 12.4629 24.4345 12.3961L24.385 12.3809C24.3226 12.361 24.2286 12.3571 24.1736 12.3287L24.1211 12.2942C23.8422 12.2868 23.3479 12.0727 23.0408 11.9972L22.9767 11.9821C22.6902 11.9036 22.3469 11.9991 22.0866 11.9219C21.9896 11.8931 21.9999 11.791 21.8621 11.8027C21.6696 11.8191 21.4063 11.8368 21.2415 11.7239L21.2049 11.6977C21.0111 11.5641 20.8432 11.425 21.0641 11.2406L21.06 11.1127C20.9946 11.1176 20.9103 11.1239 20.847 11.1105L20.7881 11.0876C20.7003 11.0628 20.6474 11.0635 20.5689 11.0102L20.5958 10.9653L23.4238 11.0768C23.3346 11.091 23.2898 11.124 23.2427 11.1979C23.1793 11.297 23.0693 11.2249 22.966 11.3277L23.2207 11.3909C23.2961 11.4493 23.3684 11.4797 23.4658 11.4656L23.5181 11.4546C23.5862 11.4933 25.0497 11.6113 25.1383 11.5687L25.1315 11.4742L24.9325 11.36C24.9149 11.3686 24.118 11.1343 24.0247 11.112L23.8704 11.1538C23.9216 10.974 24.3172 11.0745 24.4925 11.0637C27.3425 11.3122 29.8297 14.3991 30.0842 17.1234C30.1779 18.1272 30.1681 20.2445 30.0822 21.2427L30.0531 21.6212L29.9618 21.6027C29.7573 21.7931 29.8067 22.2993 29.8065 22.5461L29.8066 23.6139C29.8069 24.2347 29.8506 24.8943 29.7779 25.5101C29.3492 29.142 26.5863 31.0098 23.1165 31.0236L15.887 31.0381C15.3506 31.0608 14.9625 31.5875 14.6079 31.9404L12.7539 33.8191C11.4694 35.1214 10.1594 36.4491 8.16286 35.392C6.18003 34.3421 6.83996 32.1408 5.62813 31.812L4.59464 31.5063C3.87162 31.2583 3.18589 30.8959 2.55548 30.47Z" fill="#EFEFEF"/>
<path d="M15.5413 10.7167L15.545 7.20316C15.5456 6.53301 15.4825 5.79724 15.6128 5.13988C16.0652 2.85727 17.7384 1.25318 20.0087 0.863025C20.6151 0.758704 21.2734 0.796308 21.888 0.796197L44.7332 0.791567C45.1241 0.789361 45.5428 0.752529 45.9302 0.797963C48.2542 1.07013 50.1048 3.03393 50.4662 5.30012C50.5704 5.95417 50.5135 6.67813 50.5141 7.34189L50.5149 14.9575C50.5147 15.7377 50.5791 16.5894 50.4456 17.3593C50.0762 19.4881 48.2163 21.3274 46.0607 21.6025C45.439 21.6818 44.6131 21.4961 44.1803 22.0572C43.2376 23.2792 44.5058 25.7313 42.1485 26.3642L42.0864 26.3813C40.681 26.7559 39.8373 25.9034 38.963 24.9662L37.3602 23.217C36.9189 22.7291 36.4792 22.1967 35.961 21.7882C35.5711 21.4809 34.7428 21.6492 34.2789 21.6492L31.0575 21.6558C30.7076 21.6604 30.2857 21.7432 29.9459 21.6686L29.9744 21.3C30.0585 20.3096 30.0681 18.2089 29.9764 17.213C29.7272 14.51 27.2918 11.4473 24.501 11.2007C23.9942 11.0658 23.4205 11.082 22.9 11.0811L15.5732 11.0742L15.5413 10.7167Z" fill="white"/>
<path d="M40.8509 11.4152C42.2728 11.2624 42.6226 13.6484 41.2257 14.0657C39.5809 14.1137 39.4727 11.8095 40.8509 11.4152Z" fill="#DCDCDC"/>
<path d="M36.4775 13.6601C36.444 13.7397 36.294 13.8382 36.2299 13.8787C34.7966 14.7855 33.8607 12.1481 35.2998 11.4856C35.6168 11.3397 35.9606 11.416 36.2585 11.5825C36.7196 11.9789 37.009 12.9295 36.6018 13.5156L36.4775 13.6601Z" fill="#D5D5D5"/>
</svg>
