<svg width="52" height="34" viewBox="0 0 52 34" fill="none" xmlns="http://www.w3.org/2000/svg">
<path d="M19.7099 8.00155C18.7942 6.63406 17.1743 6.53189 15.6871 6.53125L13.7543 6.56238C11.0299 6.90706 9.13673 8.55077 7.3476 10.4504L5.76372 12.0944C4.49302 13.3928 3.17463 14.6585 2.04577 16.0858C0.36231 18.2142 0.196304 19.7666 0.196838 22.3126C0.197266 24.1179 0.028698 25.8223 1.63097 27.0625C2.43082 27.6816 3.3908 27.7885 4.3696 27.7749C4.43099 27.7741 4.47859 27.7446 4.48811 27.8076C5.7695 36.3365 15.7012 35.1404 16.4836 27.9081L23.9444 27.8669L24.9235 27.8676L25.1338 27.8179C25.0534 27.7517 24.9142 27.724 24.8159 27.6903L24.1184 27.4495C24.07 27.3849 23.6952 27.2619 23.5972 27.2148C21.4418 26.1796 20.001 23.8889 19.7375 21.5456C19.6549 20.8118 19.7041 20.0312 19.704 19.2909L19.7053 16.0776L19.7099 8.00155ZM12.0332 10.4234C13.7567 10.6785 13.5323 12.0146 13.5335 13.3321C13.5351 15.0358 13.6566 16.5532 11.6139 17.1792C11.1939 17.3079 10.5868 17.2374 10.1433 17.2385L7.62099 17.2548C6.75354 17.1877 5.92395 16.4318 6.17605 15.4947L6.18857 15.4462C6.41297 14.6443 8.41656 12.9829 9.0471 12.372C9.92011 11.5259 10.671 10.3545 12.0332 10.4234Z" fill="#FEFEFE"/>
<path d="M47.0578 5.83541L45.9674 5.82372C45.5746 4.20476 44.4814 2.74015 43.0661 1.87395C41.1593 0.707106 39.0503 0.803243 36.9039 0.802075L28.2785 0.796126C27.0707 0.793895 25.786 0.687133 24.6049 0.980649C21.7265 1.69612 19.8691 3.9735 19.8562 6.93766C19.8545 7.33847 19.8929 7.81481 19.7812 8.20213L19.776 16.2218L19.7758 19.4127C19.7759 20.1478 19.7273 20.923 19.8089 21.6517C20.0693 23.9786 21.4934 26.2533 23.6237 27.2813C23.7205 27.3281 24.091 27.4502 24.1389 27.5144L24.8282 27.7535C24.9254 27.787 25.0629 27.8145 25.1424 27.8803L24.9346 27.9265L28.9768 27.8535C28.9741 28.2574 28.9747 28.6878 29.0548 29.116C29.8618 33.4268 35.4061 35.4122 38.5857 32.1598C39.3815 31.3457 40.268 29.8747 40.3194 28.6805L40.3764 28.2679L40.3976 28.1351C40.4372 27.92 40.7168 28.0294 40.8844 28.0229C42.0633 27.9768 43.336 27.5337 44.3063 26.8802C46.6481 25.3027 47.1135 22.7027 47.1112 20.0571L47.109 16.3754C47.1074 15.9371 47.1137 15.469 47.0293 15.0384L46.9753 14.6926C46.9604 14.5808 46.9356 14.5304 46.8569 14.4501L46.8343 14.4278C47.0829 14.3875 47.3483 14.4167 47.6022 14.3884L47.6439 14.3834L48.7141 14.3748C48.9299 14.3726 49.1726 14.3836 49.3819 14.3319L49.4244 14.3205C50.6612 13.9984 50.4963 12.2327 49.1793 12.0185C48.486 11.9105 47.7594 12.0652 47.0788 11.9644C47.1502 10.9449 46.915 9.32733 46.6992 8.35616C46.5913 8.32907 46.5034 8.27798 46.4965 8.15698C46.6298 8.15485 46.7703 8.15996 46.9007 8.12968L46.9657 8.11343L50.2642 8.09388C50.4826 8.09154 50.6993 8.10121 50.9004 8.00178L50.9441 7.97968C51.8211 7.56219 51.8585 6.15792 50.9 5.84879L50.8615 5.83732C50.5649 5.74649 50.0917 5.82531 49.7765 5.8268L47.0578 5.83541Z" fill="#FEFEFE"/>
<path d="M47.0024 8.01983L50.2749 8.01401C50.4915 8.01172 50.7065 8.02118 50.9061 7.9239L50.9493 7.90229C51.8194 7.49385 51.8565 6.12004 50.9056 5.81761L50.8674 5.80639C50.5731 5.71753 50.1037 5.79464 49.791 5.7961L47.0938 5.80452L43.3801 5.81054C43.1368 5.81158 42.881 5.80597 42.6442 5.86656L42.602 5.87675C41.6868 6.11474 41.8449 7.84118 43.0844 7.9925C43.9794 8.10172 46.07 8.07013 47.0024 8.01983Z" fill="#F1F1F1"/>
<path d="M49.3596 11.9844L31.7756 11.9371C31.16 11.9372 30.1937 11.7917 29.6383 12.1037L29.5918 12.1292C28.7052 12.6318 28.767 13.8579 29.7814 14.1439L29.8343 14.1595C30.0709 14.2232 30.3357 14.2028 30.5803 14.2016L34.9534 14.1954L47.8057 14.2005L48.8887 14.1979C49.1072 14.1958 49.3528 14.2062 49.5647 14.1576L49.6076 14.1469C50.8593 13.8443 50.6924 12.1857 49.3596 11.9844Z" fill="#E3E1E1"/>
<path d="M36.1629 22.4539C32.8588 21.5585 29.3462 23.9341 29.023 27.2768C29.0059 27.4537 29.0116 27.658 28.9716 27.8296C28.9688 28.2629 28.9694 28.6929 29.0503 29.1207C29.8651 33.427 35.4636 35.4105 38.6742 32.1613C39.4778 31.3481 40.3729 29.8786 40.4247 28.6856L40.4824 28.2734C40.4907 25.7127 38.7195 23.1033 36.1629 22.4539Z" fill="#FEFEFE"/>
</svg>
