<svg width="53" height="34" viewBox="0 0 53 34" fill="none" xmlns="http://www.w3.org/2000/svg">
<path d="M32.7618 8.00155C33.6775 6.63406 35.2974 6.53189 36.7846 6.53125L38.7173 6.56238C41.4417 6.90706 43.3349 8.55077 45.1241 10.4504L46.708 12.0944C47.9787 13.3928 49.297 14.6585 50.4259 16.0858C52.1094 18.2142 52.2754 19.7666 52.2748 22.3126C52.2744 24.1179 52.443 25.8223 50.8407 27.0625C50.0409 27.6816 49.0809 27.7885 48.1021 27.7749C48.0407 27.7741 47.9931 27.7446 47.9836 27.8076C46.7022 36.3365 36.7704 35.1404 35.9881 27.9081L28.5273 27.8669L27.5482 27.8676L27.3379 27.8179C27.4183 27.7517 27.5575 27.724 27.6558 27.6903L28.3533 27.4495C28.4017 27.3849 28.7765 27.2619 28.8745 27.2148C31.0299 26.1796 32.4707 23.8889 32.7342 21.5456C32.8167 20.8118 32.7675 20.0312 32.7676 19.2909L32.7664 16.0776L32.7618 8.00155ZM40.4384 10.4234C38.715 10.6785 38.9394 12.0146 38.9382 13.3321C38.9366 15.0358 38.8151 16.5532 40.8577 17.1792C41.2778 17.3079 41.8849 17.2374 42.3283 17.2385L44.8507 17.2548C45.7181 17.1877 46.5477 16.4318 46.2956 15.4947L46.2831 15.4462C46.0587 14.6443 44.0551 12.9829 43.4246 12.372C42.5516 11.5259 41.8007 10.3545 40.4384 10.4234Z" fill="#FEFEFE"/>
<path d="M5.41389 5.83541L6.50426 5.82372C6.89711 4.20476 7.99023 2.74015 9.40558 1.87395C11.3124 0.707106 13.4214 0.803243 15.5677 0.802075L24.1931 0.796126C25.401 0.793895 26.6856 0.687133 27.8668 0.980649C30.7452 1.69612 32.6025 3.9735 32.6154 6.93766C32.6172 7.33847 32.5787 7.81481 32.6905 8.20213L32.6957 16.2218L32.6959 19.4127C32.6958 20.1478 32.7444 20.923 32.6628 21.6517C32.4024 23.9786 30.9783 26.2533 28.848 27.2813C28.7511 27.3281 28.3807 27.4502 28.3328 27.5144L27.6434 27.7535C27.5463 27.787 27.4087 27.8145 27.3292 27.8803L27.5371 27.9265L23.4949 27.8535C23.4976 28.2574 23.497 28.6878 23.4168 29.116C22.6099 33.4268 17.0655 35.4122 13.886 32.1598C13.0901 31.3457 12.2037 29.8747 12.1523 28.6805L12.0952 28.2679L12.0741 28.1351C12.0345 27.92 11.7548 28.0294 11.5873 28.0229C10.4084 27.9768 9.13568 27.5337 8.1654 26.8802C5.82355 25.3027 5.35818 22.7027 5.36051 20.0571L5.36273 16.3754C5.36431 15.9371 5.35797 15.469 5.44233 15.0384L5.49635 14.6926C5.51126 14.5808 5.5361 14.5304 5.61476 14.4501L5.63738 14.4278C5.38873 14.3875 5.12338 14.4167 4.86945 14.3884L4.8278 14.3834L3.75762 14.3748C3.54174 14.3726 3.29912 14.3836 3.08974 14.3319L3.0473 14.3205C1.8105 13.9984 1.97541 12.2327 3.29235 12.0185C3.98565 11.9105 4.71225 12.0652 5.39286 11.9644C5.3215 10.9449 5.55672 9.32733 5.77249 8.35616C5.88043 8.32907 5.96828 8.27798 5.97515 8.15698C5.84184 8.15485 5.70134 8.15996 5.57099 8.12968L5.50597 8.11343L2.20744 8.09388C1.9891 8.09154 1.77238 8.10121 1.57123 8.00178L1.52761 7.97968C0.65059 7.56219 0.613188 6.15792 1.5717 5.84879L1.6102 5.83732C1.90682 5.74649 2.37999 5.82531 2.69522 5.8268L5.41389 5.83541Z" fill="#FEFEFE"/>
<path d="M5.46925 8.01983L2.1968 8.01401C1.98019 8.01172 1.76518 8.02118 1.56562 7.9239L1.52234 7.90229C0.652257 7.49385 0.615149 6.12004 1.56608 5.81761L1.60428 5.80639C1.89856 5.71753 2.36799 5.79464 2.68072 5.7961L5.3779 5.80452L9.09155 5.81054C9.33488 5.81158 9.59068 5.80597 9.82751 5.86656L9.86967 5.87675C10.7849 6.11474 10.6268 7.84118 9.38732 7.9925C8.49226 8.10172 6.40165 8.07013 5.46925 8.01983Z" fill="#F1F1F1"/>
<path d="M3.11208 11.9844L20.6961 11.9371C21.3117 11.9372 22.278 11.7917 22.8333 12.1037L22.8799 12.1292C23.7665 12.6318 23.7047 13.8579 22.6903 14.1439L22.6373 14.1595C22.4008 14.2232 22.136 14.2028 21.8914 14.2016L17.5183 14.1954L4.66597 14.2005L3.58294 14.1979C3.36447 14.1958 3.11893 14.2062 2.90703 14.1576L2.86408 14.1469C1.61242 13.8443 1.77931 12.1857 3.11208 11.9844Z" fill="#E3E1E1"/>
<path d="M16.3088 22.4539C19.6129 21.5585 23.1254 23.9341 23.4487 27.2768C23.4658 27.4537 23.4601 27.658 23.5001 27.8296C23.5029 28.2629 23.5023 28.6929 23.4213 29.1207C22.6065 33.427 17.0081 35.4105 13.7975 32.1613C12.9939 31.3481 12.0988 29.8786 12.0469 28.6856L11.9893 28.2734C11.981 25.7127 13.7521 23.1033 16.3088 22.4539Z" fill="#FEFEFE"/>
</svg>
