<svg width="87" height="17" viewBox="0 0 87 17" fill="none" xmlns="http://www.w3.org/2000/svg">
<path d="M8.39523 0.775391L11.1736 5.46389L16.5688 6.61221L12.8907 10.6582L13.4468 16.0564L8.39523 13.8684L3.3437 16.0564L3.89978 10.6582L0.22168 6.61221L5.61689 5.46389L8.39523 0.775391Z" fill="white"/>
<path d="M25.8083 0.775391L28.5867 5.46389L33.9819 6.61221L30.3038 10.6582L30.8599 16.0564L25.8083 13.8684L20.7568 16.0564L21.3129 10.6582L17.6348 6.61221L23.03 5.46389L25.8083 0.775391Z" fill="white"/>
<path d="M43.2219 0.775391L46.0002 5.46389L51.3954 6.61221L47.7173 10.6582L48.2734 16.0564L43.2219 13.8684L38.1704 16.0564L38.7264 10.6582L35.0483 6.61221L40.4435 5.46389L43.2219 0.775391Z" fill="white"/>
<path d="M60.635 0.775391L63.4133 5.46389L68.8085 6.61221L65.1304 10.6582L65.6865 16.0564L60.635 13.8684L55.5834 16.0564L56.1395 10.6582L52.4614 6.61221L57.8566 5.46389L60.635 0.775391Z" fill="white"/>
<path d="M78.0481 0.775391L80.8264 5.46389L86.2216 6.61221L82.5435 10.6582L83.0996 16.0564L78.0481 13.8684L72.9965 16.0564L73.5526 10.6582L69.8745 6.61221L75.2697 5.46389L78.0481 0.775391Z" fill="white"/>
</svg>
