<?xml version="1.0" encoding="UTF-8"?>
<svg id="Layer_1" data-name="Layer 1" xmlns="http://www.w3.org/2000/svg" viewBox="0 0 47 44">
  <defs>
    <style>
      .cls-1 {
        fill: none;
        stroke: #000;
        stroke-miterlimit: 10;
        stroke-width: 3px;
      }
    </style>
  </defs>
  <path class="cls-1" d="M22.69,7.49c.78-1.17,3.17-4.37,7.28-5.47,2.6-.69,4.71-.23,5.66,0,1.49.35,4.81,1.12,7.28,4.56.45.63,2.62,3.78,2.43,8.2-.15,3.54-1.73,5.92-3.24,8.2-1.29,1.95-1.91,2.3-8.09,8.2-4.2,4-5.58,5.44-6.47,6.38-2.1,2.22-3.75,4.15-4.85,5.47"/>
  <path class="cls-1" d="M24.1,7.28c-.78-1.17-3.17-4.37-7.28-5.47-2.6-.69-4.71-.23-5.66,0-1.49.35-4.81,1.12-7.28,4.56-.45.63-2.62,3.78-2.43,8.2.15,3.54,1.73,5.92,3.24,8.2,1.29,1.95,1.91,2.3,8.09,8.2,4.2,4,5.58,5.44,6.47,6.38,2.1,2.22,3.75,4.15,4.85,5.47"/>
</svg>