<svg width="66" height="66" viewBox="0 0 66 66" fill="none" xmlns="http://www.w3.org/2000/svg">
<path fill-rule="evenodd" clip-rule="evenodd" d="M13.959 0.775391C10.2656 0.77539 6.72328 2.24225 4.11111 4.85342C1.49893 7.46459 0.0307153 11.0063 0.0292969 14.6998V51.8457C0.0292969 55.5401 1.49689 59.0831 4.10922 61.6955C6.72155 64.3078 10.2646 65.7754 13.959 65.7754H51.1049C54.7984 65.774 58.3401 64.3058 60.9513 61.6936C63.5624 59.0814 65.0293 55.5391 65.0293 51.8457V14.6998C65.0279 11.0072 63.5604 7.46633 60.9494 4.85531C58.3384 2.24429 54.7975 0.776808 51.1049 0.775391H13.959ZM55.1116 14.7212C55.1116 15.7852 54.6889 16.8057 53.9365 17.5581C53.1841 18.3105 52.1636 18.7332 51.0996 18.7332C50.0355 18.7332 49.015 18.3105 48.2626 17.5581C47.5103 16.8057 47.0876 15.7852 47.0876 14.7212C47.0876 13.6571 47.5103 12.6366 48.2626 11.8842C49.015 11.1318 50.0355 10.7091 51.0996 10.7091C52.1636 10.7091 53.1841 11.1318 53.9365 11.8842C54.6889 12.6366 55.1116 13.6571 55.1116 14.7212ZM32.5373 22.1461C29.5863 22.1461 26.7562 23.3183 24.6696 25.405C22.5829 27.4916 21.4107 30.3217 21.4107 33.2727C21.4107 36.2237 22.5829 39.0538 24.6696 41.1404C26.7562 43.2271 29.5863 44.3994 32.5373 44.3994C35.4883 44.3994 38.3184 43.2271 40.4051 41.1404C42.4917 39.0538 43.664 36.2237 43.664 33.2727C43.664 30.3217 42.4917 27.4916 40.4051 25.405C38.3184 23.3183 35.4883 22.1461 32.5373 22.1461ZM16.056 33.2727C16.056 28.903 17.7918 24.7123 20.8817 21.6224C23.9715 18.5326 28.1623 16.7967 32.532 16.7967C36.9017 16.7967 41.0924 18.5326 44.1823 21.6224C47.2721 24.7123 49.008 28.903 49.008 33.2727C49.008 37.6424 47.2721 41.8332 44.1823 44.923C41.0924 48.0129 36.9017 49.7487 32.532 49.7487C28.1623 49.7487 23.9715 48.0129 20.8817 44.923C17.7918 41.8332 16.056 37.6424 16.056 33.2727Z" fill="white"/>
</svg>
