<?xml version="1.0" encoding="UTF-8"?>
<svg id="Layer_1" data-name="Layer 1" xmlns="http://www.w3.org/2000/svg" viewBox="0 0 47 44">
  <defs>
    <style>
      .cls-1 {
        fill: none;
        stroke: #000;
        stroke-miterlimit: 10;
        stroke-width: 3px;
      }
    </style>
  </defs>
  <path class="cls-1" d="M44.96,36.31v5.98H2.18c-.52-1.7-.93-4.02,0-5.98,2.76-5.75,14.47-2.29,16.42-7.49.52-1.39.1-2.89-.75-5.89-1.32-4.71-3.29-5.35-3.73-9.26-.34-3.01.52-5.34.75-5.89,1.01-2.55,2.63-3.91,2.99-4.21,3.15-2.57,6.76-1.84,7.46-1.68"/>
  <path class="cls-1" d="M2.07,36.4v5.98h42.79c.52-1.7.93-4.02,0-5.98-2.76-5.75-14.47-2.29-16.42-7.49-.52-1.39-.1-2.89.75-5.89,1.32-4.71,3.29-5.35,3.73-9.26.34-3.01-.52-5.34-.75-5.89-1.01-2.55-2.63-3.91-2.99-4.21-3.15-2.57-6.76-1.84-7.46-1.68"/>
</svg>