<?xml version="1.0" encoding="UTF-8"?><svg id="Layer_1" xmlns="http://www.w3.org/2000/svg" width="380" height="341" viewBox="0 0 380 341"><defs><style>.cls-1{fill:#073f9c;stroke-width:0px;}</style></defs><path class="cls-1" d="M345.34,26.12c8.15.61,14.77,7.36,16.93,14.98,1.15,4.07,1.26,8.93-1.14,12.59-2.51,3.84-7.47,4.94-11.66,5.79-21.63,4.38-43.85,3.33-65.77,2.93-12.37-.22-24.77-.24-37.1.94-1.9.18-1.92,3.19,0,3,23.5-2.26,47.09-.1,70.63-.64,11.54-.27,23.19-1.15,34.48-3.64,4.6-1.02,9.33-2.75,12.02-6.87s2.74-9.06,1.78-13.52c-2.06-9.58-10.2-17.82-20.16-18.56-1.93-.14-1.92,2.86,0,3h0Z"/><path class="cls-1" d="M247.26,63.35c-14.25-.49-28.52-.03-42.71,1.41s-28.05,3.8-42.03,5.88c-7.71,1.14-15.47,2.15-22.98,4.28-1.85.53-1.07,3.42.8,2.89,6.57-1.87,13.32-2.85,20.06-3.85s13.85-2.06,20.77-3.09c13.96-2.07,27.9-3.87,42.02-4.45,8.02-.33,16.05-.35,24.08-.08,1.93.07,1.93-2.93,0-3h0Z"/><path class="cls-1" d="M139.49,74.76c-16.44,6-32.32,13.55-47.31,22.59-3.85,2.32-7.63,4.73-11.41,7.16-3.58,2.29-7.14,4.58-10.51,7.18-6.31,4.87-11.93,10.56-17.01,16.7-5.75,6.94-10.83,14.4-15.64,22.01-1.03,1.64,1.56,3.14,2.59,1.51,8.34-13.21,17.6-26.12,29.73-36.14,6.52-5.38,13.92-9.76,21.1-14.19,7.29-4.5,14.78-8.67,22.46-12.46,8.72-4.31,17.67-8.12,26.8-11.46,1.8-.66,1.02-3.56-.8-2.89h0Z"/><path class="cls-1" d="M37.4,150.86c-4.59,8.4-8.6,17.11-11.98,26.06-1.69,4.47-3.42,8.93-3.64,13.75s.19,9.76.18,14.63c-.01,5.72-.21,11.44-.58,17.14-.12,1.93,2.88,1.92,3,0,.63-9.72.49-19.38.36-29.11-.03-2.41.08-4.8.67-7.14.56-2.21,1.37-4.35,2.15-6.49,1.61-4.38,3.36-8.71,5.28-12.97,2.19-4.88,4.58-9.67,7.15-14.36.93-1.69-1.66-3.21-2.59-1.51h0Z"/><path class="cls-1" d="M21.32,223.09c.99,8.66,2.53,17.46,7.19,24.98,1.01,1.64,3.61.13,2.59-1.51-4.37-7.06-5.85-15.34-6.78-23.47-.22-1.9-3.22-1.92-3,0h0Z"/><path class="cls-1" d="M28.08,247.24c2.34,3.74,4.54,7.63,7.37,11.03s6.25,6.34,9.59,9.26,7.1,5.55,10.88,8.08,7.51,5.13,11.36,7.54c4.17,2.62,8.51,4.96,13.15,6.62,1.82.65,2.61-2.25.8-2.89-8.01-2.86-15-7.95-22.01-12.66-3.69-2.48-7.44-4.87-10.83-7.76s-6.45-5.53-9.33-8.63c-3.36-3.62-5.79-7.94-8.4-12.11-1.02-1.63-3.62-.13-2.59,1.51h0Z"/><path class="cls-1" d="M80.02,289.63c1.92.4,3.68,1.3,5.46,2.1,1.87.84,3.75,1.68,5.62,2.52,3.73,1.67,7.44,3.35,11.18,5s7.27,2.9,11.2,3.5,7.64.7,11.48.66c4.65-.05,9.3-.24,13.94-.51,1.92-.11,1.93-3.11,0-3-5.18.3-10.38.53-15.57.52-4.87,0-9.77-.33-14.45-1.78s-9.42-3.91-14.03-5.97c-2.4-1.07-4.8-2.15-7.19-3.22-2.22-.99-4.46-2.21-6.85-2.7-1.88-.39-2.69,2.5-.8,2.89h0Z"/><path class="cls-1" d="M118.91,280.6c7.73,2.6,15.53,5.9,21.64,11.44,2.91,2.64,6,5.98,6.84,9.94.41,1.96.15,4.16-1.12,5.77-1.35,1.72-3.49,2.87-5.39,3.89-4.88,2.6-10.15,4.45-15.33,6.36-1.8.66-1.02,3.56.8,2.89,5.14-1.9,10.35-3.76,15.24-6.25,4.34-2.2,8.61-5.05,8.95-10.33.3-4.69-2.57-8.86-5.6-12.15s-6.79-6.05-10.72-8.26c-4.59-2.58-9.52-4.52-14.51-6.2-1.83-.62-2.62,2.28-.8,2.89h0Z"/></svg>