<?xml version="1.0" encoding="UTF-8"?>
<svg id="Layer_1" data-name="Layer 1" xmlns="http://www.w3.org/2000/svg" viewBox="0 0 47 44">
  <defs>
    <style>
      .cls-1 {
        fill: none;
        stroke: #000;
        stroke-miterlimit: 10;
        stroke-width: 3px;
      }
    </style>
  </defs>
  <path class="cls-1" d="M39.62,42.5H7.38V10.26h32.25v32.25Z"/>
  <path class="cls-1" d="M12.39,10.26c.43-1.66,1.08-2.75,1.61-3.44.39-.51.46-.48,1.61-1.72,1.81-1.96,1.74-2.15,2.4-2.58,1.02-.67,2.05-.76,3.2-.86.63-.06.81,0,3.2,0h1.61"/>
  <path class="cls-1" d="M33.08,10.04c-.43-1.62-1.08-2.67-1.61-3.35-.39-.49-.46-.47-1.61-1.67-1.81-1.91-1.74-2.09-2.4-2.51-1.02-.64-2.05-.74-3.2-.84-.63-.06-.81,0-3.2,0h-1.61"/>
</svg>