<?xml version="1.0" encoding="UTF-8"?><svg id="Layer_1" xmlns="http://www.w3.org/2000/svg" width="501" height="210" viewBox="0 0 501 210"><defs><style>.cls-1{fill:#073f9c;stroke-width:0px;}</style></defs><path class="cls-1" d="M31.52,65.45c-7.09.22-12.02,6.43-13.22,13.01-.77,4.24-.37,8.54.14,12.79.57,4.75,1.17,9.5,1.76,14.26,1.16,9.35,2.3,18.71,3.47,28.06,1.02,8.17,2.22,16.52,6.18,23.86,7.16,13.25,21.73,20.51,35.98,23.35,8.8,1.75,17.79,2.14,26.74,2.37,8.9.23,17.81.39,26.71.47,35.38.35,70.8-.46,106.08-3.25s69.79-7.48,104.05-14.98c34.15-7.48,67.76-17.76,99.9-31.54,14.13-6.06,28.26-13.2,39.29-24.12,10.25-10.14,16.99-23.64,17.16-38.23.08-6.67-1.35-13.4-4.54-19.28-3.58-6.58-9.35-11.56-15.77-15.27-7.1-4.1-14.97-7.02-22.75-9.54-8.66-2.81-17.54-4.94-26.53-6.34-18.67-2.91-37.58-2.5-56.35-.83-19.06,1.7-38.03,4.32-57.04,6.5-38.14,4.36-76.33,8.23-114.57,11.61-38.39,3.4-76.82,6.31-115.28,8.72-9.35.59-18.71,1.15-28.06,1.68-1.92.11-1.93,3.11,0,3,37.12-2.1,74.21-4.66,111.27-7.67,36.75-2.99,73.47-6.43,110.14-10.32,18.49-1.96,36.96-4.03,55.42-6.22s36.71-4.69,55.19-5.43c18.02-.73,36,.53,53.53,4.9,8.55,2.13,17.01,4.89,25.11,8.37,7.04,3.03,13.98,6.83,19.12,12.64,9.54,10.79,9.82,26.56,5.09,39.53-5.14,14.11-16.59,24.59-29.13,32.27-13.64,8.35-28.81,14.23-43.74,19.82-15.78,5.9-31.84,11.04-48.09,15.47-32.84,8.96-66.42,15.06-100.21,19.03-34.02,4-68.27,5.88-102.51,6.41-16.98.27-33.97.2-50.95-.11-16.87-.31-34.88.35-50.79-6.14-6.66-2.71-12.9-6.76-17.63-12.22-5.42-6.26-7.81-14.07-9.12-22.1-1.45-8.89-2.32-17.9-3.42-26.84s-2.64-17.89-3.2-26.85c-.44-7.04,1.63-17.55,10.58-17.82,1.93-.06,1.93-3.06,0-3h0Z"/></svg>